<svg xmlns="http://www.w3.org/2000/svg" viewBox="0 0 357.89 78.1"><defs><style>.cls-1{fill:#fdce4b;}</style></defs><g id="Layer_2" data-name="Layer 2"><g id="Layer_1-2" data-name="Layer 1"><rect class="cls-1" x="307.03" y="4.11" width="18.34" height="18.34"/><rect class="cls-1" x="247.27" y="58.48" width="12.98" height="12.98"/><rect class="cls-1" x="269.29" y="47.95" width="11.6" height="11.6"/><rect class="cls-1" x="223.08" y="7.92" width="43.64" height="43.64"/><rect class="cls-1" x="278.89" y="17.07" width="22.13" height="22.13"/><rect class="cls-1" x="168.22" y="0.06" width="10.7" height="10.7"/><rect class="cls-1" x="323.79" y="26.61" width="34.1" height="34.1"/><rect class="cls-1" x="286.03" y="47.09" width="28.88" height="28.88"/><rect class="cls-1" x="214.07" y="54.7" width="23.4" height="23.4"/><rect class="cls-1" x="149.88" y="15.81" width="56.92" height="56.92"/><rect class="cls-1" x="113.83" width="29.72" height="29.72"/><rect class="cls-1" x="102.45" y="42.37" width="16.44" height="16.44"/><rect class="cls-1" x="0.63" y="3.16" width="13.91" height="13.91"/><rect class="cls-1" x="55.02" y="27.19" width="40.47" height="40.47"/><rect class="cls-1" x="81.58" y="1.26" width="20.24" height="20.24"/><rect class="cls-1" x="126.8" y="47.7" width="12.07" height="12.07"/><rect class="cls-1" x="0.17" y="65.06" width="8.7" height="8.7"/><rect class="cls-1" x="11.91" y="57.5" width="8.7" height="8.7"/><rect class="cls-1" x="101.5" y="65.26" width="8.7" height="8.7"/><rect class="cls-1" x="30.99" y="47.43" width="15.18" height="15.18"/><rect class="cls-1" y="27.19" width="24.03" height="24.03"/><rect class="cls-1" x="30.99" y="1.9" width="22.77" height="22.77"/></g></g></svg>